<svg id="visual" viewBox="0 0 540 960" width="540" height="960" xmlns="http://www.w3.org/2000/svg" xmlns:xlink="http://www.w3.org/1999/xlink" version="1.1"><g transform="translate(282.34245080885154 480.2787501959234)"><path d="M123.5 -206.9C157 -194.6 178.9 -155.3 194.6 -116.3C210.3 -77.3 219.6 -38.7 215.6 -2.3C211.6 34 194.1 68 178.1 106.4C162.1 144.8 147.6 187.6 118.1 203.4C88.7 219.2 44.3 208.1 6.9 196.1C-30.5 184.2 -61 171.3 -96.5 159C-132 146.7 -172.5 134.8 -201.8 108.4C-231 82 -249 41 -237.9 6.4C-226.7 -28.1 -186.4 -56.3 -163.3 -93.2C-140.1 -130.2 -134.1 -175.9 -109.7 -193.5C-85.3 -211.1 -42.7 -200.6 1.2 -202.6C45 -204.6 90 -219.2 123.5 -206.9" fill="#0284c7"></path></g></svg>