<svg id="visual" viewBox="0 0 540 960" width="540" height="960" xmlns="http://www.w3.org/2000/svg" xmlns:xlink="http://www.w3.org/1999/xlink" version="1.1"><g transform="translate(271.23836503784685 481.3025188095397)"><path d="M75.2 -138.9C101 -115.3 128 -102.4 141.3 -81C154.7 -59.7 154.3 -29.8 160.4 3.5C166.5 36.8 178.9 73.7 175.8 112.6C172.6 151.6 153.8 192.7 121.9 199C90 205.2 45 176.6 11.2 157.1C-22.5 137.6 -45 127.3 -67.8 115.8C-90.6 104.3 -113.7 91.6 -129.5 72.2C-145.2 52.7 -153.6 26.3 -163.7 -5.8C-173.8 -38 -185.6 -76 -173.9 -102.4C-162.1 -128.8 -126.8 -143.7 -93.9 -163.2C-61 -182.7 -30.5 -206.8 -2.9 -201.8C24.7 -196.7 49.3 -162.4 75.2 -138.9" fill="#0284c7"></path></g></svg>